<svg width="16" height="16" viewBox="0 0 16 16" fill="none" xmlns="http://www.w3.org/2000/svg">
<g clip-path="url(#clip0_1569_27289)">
<path d="M9.01428 2.67176L10.1557 3.6765C10.8711 2.6287 10.877 1.1831 10.1108 0.118896L9.23906 2.2309C9.17456 2.38469 9.10028 2.53233 9.01428 2.67176Z" fill="#8E68F3"/>
<path d="M5.88906 0.118896L6.76079 2.2309C6.82334 2.38469 6.89957 2.53028 6.98752 2.67176C7.14389 2.92602 7.33543 3.15568 7.5563 3.35047L7.99998 3.74007L9.11408 4.7202L11.8954 7.17054L10.7813 8.14863L7.99998 5.70034L6.88588 4.7202L6.33275 4.23219C6.14315 4.0661 5.98093 3.8795 5.84411 3.67855C5.12874 2.63075 5.12092 1.1831 5.88906 0.120947V0.118896Z" fill="#8E68F3"/>
<path d="M1.96821 9.20899C2.13044 8.96293 2.32394 8.73532 2.55262 8.53438L2.94549 8.18784L4.10258 7.1708L6.88587 4.72046L7.99997 5.70059L5.21864 8.14888L4.10454 9.12902L3.47517 9.6847C3.31099 9.82824 3.17808 9.99843 3.07644 10.183C2.68358 10.8965 2.76762 11.8357 3.37158 12.4611C4.02049 13.1336 5.06032 13.1521 5.77373 12.5595L6.88783 13.5396L6.69237 13.7098C6.09037 14.2388 5.3535 14.4993 4.62445 14.4993C3.70581 14.4993 2.79303 14.0892 2.15585 13.2915C1.20593 12.1022 1.1688 10.427 1.96821 9.20694V9.20899Z" fill="#8E68F3"/>
<path d="M1.7043 7.32032L2.69331 6.44886C1.76294 6.27662 0.775889 6.5924 0.0957031 7.36133L1.34466 7.67301C1.45607 7.54998 1.57726 7.43105 1.70626 7.31827L1.7043 7.32032Z" fill="#6ED3D9" style="mix-blend-mode:multiply"/>
<path d="M8 10.599L10.7813 8.14863L11.8954 7.17054L11.9677 7.10697C12.3665 6.75634 12.8297 6.53694 13.3066 6.45082C14.237 6.27857 15.2221 6.59435 15.9023 7.36329L14.6553 7.67496L13.7699 7.89641C13.5197 7.95998 13.2773 8.05635 13.0525 8.18963C12.8844 8.28396 12.7281 8.39673 12.5815 8.52592L11.8954 9.12876L9.1141 11.5791L8 10.599Z" fill="#6ED3D9" style="mix-blend-mode:multiply"/>
<path d="M4.10254 9.12882L5.21664 8.14868L7.99797 10.599L9.11207 11.5792L10.1851 12.5244C10.1988 12.5367 10.2125 12.547 10.2262 12.5593C10.9396 13.1519 11.9794 13.1355 12.6283 12.4609C13.2323 11.8355 13.3144 10.8943 12.9235 10.1828L14.0297 9.20879C14.8291 10.4268 14.794 12.1041 13.8421 13.2934C13.2049 14.091 12.2921 14.5011 11.3735 14.5011C10.6444 14.5011 9.90757 14.2407 9.30557 13.7117L9.11011 13.5415L7.99797 12.5634L6.88387 11.5833L4.10059 9.13292L4.10254 9.12882Z" fill="#8E68F3"/>
</g>
<defs>
<clipPath id="clip0_1569_27289">
<rect width="16" height="16" fill="white"/>
</clipPath>
</defs>
</svg>
